<svg width="278" height="172" viewBox="0 0 278 172" fill="none" xmlns="http://www.w3.org/2000/svg">
<path d="M82.094 106.234L79.0829 108.68L81.5953 111.061L86.7554 109.632V106.948L82.094 106.234Z" fill="white"/>
<path d="M82.0941 106.234L86.7555 106.948V102.447L82.0941 106.234Z" fill="white"/>
<path d="M79.0829 108.68L82.094 106.234L75.4211 105.211L79.0829 108.68Z" fill="white"/>
<path d="M81.5954 111.061L79.083 108.68L73.3393 113.347L81.5954 111.061Z" fill="white"/>
<path d="M86.7554 109.632L81.5953 111.061L86.7554 115.949V109.632Z" fill="white"/>
<path d="M86.7554 106.948V109.632L92.9928 107.905L86.7554 106.948Z" fill="white"/>
<path d="M141.08 147.885C143.601 148.513 145.581 150.312 147.079 153.044C148.83 156.238 148.429 160.824 146.712 164.493H153.596C147.575 156.74 136.619 120.469 131.893 103.301C129.387 105.165 125.949 105.586 122.273 105.211C123.76 115.084 128.426 135.75 135.192 139.428C139.329 138.513 140.846 144.321 141.08 147.885Z" fill="white"/>
<path d="M141.08 93.904C138.407 88.4366 126.314 80.8052 120.601 77.6729L120.201 64.1011C112.382 65.0303 97.2635 69.7627 96.3831 72.9826C94.0397 75.7492 93.0872 78.6042 92.9928 81.3457C92.9888 81.4591 92.9864 81.5724 92.9854 81.6854C92.9094 90.2199 100.994 97.565 100.994 97.565C100.994 97.565 112.476 104.212 122.273 105.211C125.949 105.586 129.387 105.165 131.893 103.301L141.08 93.904Z" fill="white"/>
<path fill-rule="evenodd" clip-rule="evenodd" d="M100.994 97.565C100.994 97.565 92.9094 90.2199 92.9854 81.6854C92.9864 81.5724 92.9888 81.4591 92.9928 81.3457C85.6716 88.3482 67.0629 105.679 60.9078 117.224C52.2955 133.378 49.5541 151.086 65.9186 162.246C78.324 170.705 110.192 172.468 127.514 167.228C123.386 165.48 121.799 159.592 122.273 154.063C122.845 147.4 126.614 144.951 132.675 140.642C133.606 139.981 134.442 139.594 135.192 139.428C128.426 135.75 123.76 115.084 122.273 105.211C112.476 104.212 100.994 97.565 100.994 97.565ZM86.7554 102.447V106.948L92.9928 107.905L86.7554 109.632V115.949L81.5953 111.061L73.3393 113.347L79.0829 108.68L75.4211 105.211L82.094 106.234L86.7554 102.447Z" fill="white"/>
<path d="M179.273 124.984C176.211 110.559 174.536 94.0847 164.88 84.507C164.354 87.9065 159.992 91.7057 155.785 95.082C155.754 106.682 156.612 131.455 160.287 137.751C157.616 122.197 171.832 122.76 179.273 124.984Z" fill="white"/>
<path d="M160.287 137.751C156.612 131.455 155.754 106.682 155.785 95.082C155.248 95.5125 154.714 95.9361 154.191 96.3512L154.188 96.3536L154.186 96.3553C151.104 98.8001 148.398 100.947 147.76 102.447C148.554 121.728 152.605 161.13 162.455 164.493H181.138C170.098 164.493 162.637 146.666 160.287 137.751Z" fill="white"/>
<path d="M168.763 144.025C166.914 136.809 176.65 134.731 181.75 134.594C180.771 131.576 179.985 128.336 179.273 124.984C171.832 122.76 157.616 122.197 160.287 137.751C162.637 146.666 170.098 164.493 181.138 164.493C178.524 162.713 176.038 158.347 174.768 154.063C173.536 153.724 170.612 151.24 168.763 144.025Z" fill="white"/>
<path d="M141.08 93.904L147.76 102.447C148.398 100.947 151.104 98.8001 154.186 96.3553L154.188 96.3536L154.191 96.3512C154.714 95.9361 155.248 95.5125 155.785 95.082C159.992 91.7057 164.354 87.9065 164.88 84.507C169.15 74.3407 159.343 70.3113 155.785 66.9515C154.706 69.2259 153.432 71.2807 151.936 72.9826C149.932 84.9488 143.863 91.9161 141.08 93.904Z" fill="white"/>
<path fill-rule="evenodd" clip-rule="evenodd" d="M120.873 63.3059C121.091 63.4983 121.22 63.7752 121.228 64.0695L121.61 77.0364C124.499 78.6488 128.705 81.2207 132.579 84.0584C134.636 85.5656 136.615 87.1596 138.258 88.7351C139.501 89.9267 140.589 91.1429 141.367 92.3338C144.204 89.8037 149.163 83.3169 150.923 72.805C150.956 72.6095 151.042 72.4274 151.172 72.2799C152.589 70.6681 153.812 68.7016 154.86 66.4927C155.002 66.1935 155.274 65.9807 155.594 65.9189C155.913 65.8571 156.242 65.9537 156.482 66.1792C157.113 66.7761 157.954 67.3924 158.939 68.1149C159.25 68.3429 159.575 68.5814 159.913 68.8331C161.277 69.8504 162.776 71.0401 164.034 72.4756C165.297 73.9177 166.346 75.6421 166.768 77.7355C167.156 79.6638 166.995 81.8227 166.089 84.2546C170.803 89.1752 173.575 95.6855 175.537 102.637C176.912 107.512 177.911 112.701 178.886 117.766C179.343 120.141 179.795 122.487 180.278 124.762C180.986 128.096 181.763 131.297 182.725 134.263C183.473 136.571 184.33 138.728 185.346 140.689C185.465 140.71 185.584 140.734 185.701 140.76C188.684 141.422 190.941 143.496 192.577 146.479C193.351 147.889 193.536 149.585 193.382 151.299C193.226 153.021 192.722 154.845 192.02 156.595C190.626 160.073 188.377 163.443 186.232 165.296C185.365 166.044 184.391 166.404 183.371 166.374C182.479 166.349 181.625 166.03 180.84 165.544H147.345C146.552 167.073 145.527 168.451 144.312 169.5C142.26 171.272 139.786 170.774 137.678 169.44C136.316 168.578 134.987 167.309 133.788 165.838C132.058 166.764 130.037 167.56 127.806 168.235C118.987 170.903 106.557 171.771 94.8003 170.923C83.0795 170.077 71.7841 167.508 65.3487 163.12C56.8936 157.354 53.3162 149.828 53.0202 141.647C52.7268 133.537 55.6582 124.876 60.0058 116.721C63.1581 110.808 69.4413 103.498 75.7772 96.8481C81.3038 91.0472 86.9412 85.6766 90.7195 82.0771C91.1699 81.648 91.5938 81.2441 91.988 80.8677C92.1715 78.0729 93.196 75.2021 95.4774 72.4485C95.7156 71.8453 96.1844 71.3324 96.679 70.9088C97.2666 70.4054 98.0273 69.914 98.8915 69.4406C100.624 68.4919 102.898 67.5483 105.358 66.6884C110.274 64.9693 116.082 63.5326 120.083 63.0572C120.369 63.0232 120.655 63.1135 120.873 63.3059ZM132.521 164.141C132.326 163.855 132.136 163.565 131.95 163.272C131.905 163.199 131.86 163.127 131.815 163.054C130.479 160.888 129.429 158.518 128.912 156.348C128.835 156.023 128.768 155.699 128.715 155.377C128.53 154.27 128.497 153.195 128.682 152.228C128.707 152.099 128.736 151.97 128.77 151.844C129.058 150.729 129.671 149.766 130.753 149.155C134.18 147.222 137.235 146.383 139.915 146.627C139.712 145.214 139.319 143.678 138.692 142.47C138.279 141.674 137.8 141.09 137.275 140.75C136.779 140.428 136.184 140.284 135.409 140.456C134.825 140.584 134.113 140.9 133.262 141.505C133.064 141.645 132.869 141.784 132.678 141.92C129.889 143.9 127.741 145.423 126.174 147.179C124.556 148.991 123.563 151.052 123.296 154.155C123.07 156.799 123.341 159.494 124.132 161.702C124.875 163.773 126.037 165.324 127.587 166.107C129.442 165.528 131.1 164.871 132.521 164.141ZM124.997 166.834C123.732 165.688 122.816 164.136 122.203 162.425C121.287 159.871 121.002 156.857 121.25 153.971C121.555 150.411 122.733 147.916 124.657 145.761C126.387 143.823 128.725 142.164 131.434 140.243C131.504 140.194 131.574 140.144 131.644 140.095L97.1204 136.301C96.5563 136.239 96.1481 135.721 96.2087 135.144C96.2693 134.567 96.7758 134.149 97.34 134.211L132 138.021C131.144 136.997 130.356 135.769 129.63 134.427C128.174 131.739 126.886 128.434 125.777 124.971C123.672 118.4 122.17 111.142 121.38 106.165C116.556 105.538 111.469 103.687 107.556 101.98C105.483 101.076 103.721 100.203 102.475 99.5563C101.853 99.2326 101.358 98.965 101.018 98.7776C100.849 98.684 100.717 98.6102 100.628 98.5596C100.602 98.5449 100.579 98.5322 100.561 98.5215C100.547 98.5137 100.535 98.5069 100.525 98.5012L100.498 98.4857L100.491 98.4815L100.489 98.4803C100.488 98.4801 100.488 98.4797 100.994 97.565C100.311 98.3507 100.311 98.3505 100.311 98.3503L100.302 98.3422L100.281 98.3229C100.263 98.3065 100.238 98.283 100.206 98.2528C100.142 98.1921 100.05 98.1041 99.9338 97.9899C99.7021 97.7618 99.3747 97.4292 98.9836 97.0045C98.2025 96.156 97.1622 94.9335 96.1227 93.4334C94.3629 90.8936 92.5418 87.4665 92.0729 83.6599C88.2934 87.2608 82.7167 92.5757 77.2487 98.315C71.1468 104.72 65.2663 111.566 62.1573 117.094C64.5352 119.766 68.8492 122.885 73.9145 125.019C79.3225 127.298 85.4091 128.38 90.7547 126.766C91.2989 126.601 91.8703 126.919 92.031 127.476C92.1917 128.032 91.8808 128.617 91.3366 128.782C85.3697 130.584 78.7723 129.34 73.132 126.962C68.1734 124.873 63.8171 121.852 61.1264 119.037C57.2548 126.626 54.8146 134.409 55.0736 141.57C55.345 149.07 58.5791 155.977 66.4885 161.372C72.4586 165.442 83.2996 167.985 94.9448 168.826C105.575 169.592 116.672 168.927 124.997 166.834ZM100.994 97.565L100.311 98.3503C100.365 98.3995 100.424 98.4432 100.488 98.4797L100.994 97.565ZM101.598 96.7065C101.605 96.7108 101.614 96.7154 101.622 96.7203C101.706 96.7675 101.83 96.8376 101.994 96.9275C102.32 97.1075 102.799 97.367 103.406 97.6822C104.62 98.3128 106.34 99.1645 108.362 100.047C112.426 101.82 117.632 103.682 122.375 104.165C125.916 104.526 129.023 104.101 131.226 102.498L139.801 93.7255C139.158 92.6802 138.148 91.51 136.853 90.2686C135.298 88.7777 133.396 87.2429 131.382 85.7672C127.354 82.816 122.942 80.1486 120.116 78.5992C119.792 78.4216 119.585 78.0804 119.574 77.7045L119.209 65.2956C115.455 65.8606 110.392 67.1495 106.022 68.6773C103.615 69.5191 101.456 70.4204 99.8614 71.2937C99.0623 71.7313 98.4363 72.145 97.9981 72.5203C97.5341 72.9178 97.3976 73.1737 97.3725 73.2657C97.3316 73.4151 97.2589 73.5534 97.1596 73.6707C94.9675 76.2587 94.1055 78.8848 94.0195 81.3827C94.0193 81.3853 94.0193 81.3879 94.0192 81.3904C94.0158 81.4921 94.0136 81.5937 94.0128 81.695C93.9776 85.6372 95.8369 89.3861 97.7991 92.2179C98.7713 93.6209 99.7472 94.768 100.48 95.5635C100.845 95.9606 101.149 96.2687 101.359 96.4756C101.463 96.5779 101.544 96.6553 101.598 96.7065ZM140.994 95.4774L146.748 102.835C147.161 112.51 148.375 127.038 150.702 139.634C151.879 146.003 153.349 151.924 155.164 156.487C156.071 158.767 157.079 160.747 158.207 162.283C158.512 162.698 158.829 163.086 159.16 163.442H154.106C152.752 161.53 151.094 158.108 149.277 153.669C147.342 148.941 145.268 143.167 143.231 137.086C139.249 125.203 135.42 112.193 133.046 103.608L140.994 95.4774ZM131.275 104.926C129.007 106.144 126.289 106.498 123.494 106.358C124.291 111.232 125.739 118.102 127.729 124.316C128.818 127.713 130.059 130.881 131.427 133.41C132.719 135.797 134.057 137.483 135.382 138.327C136.51 138.17 137.517 138.419 138.374 138.975C139.304 139.577 139.995 140.498 140.507 141.484C141.397 143.199 141.858 145.325 142.041 147.076C143.229 147.479 144.289 148.122 145.231 148.966C143.929 145.481 142.599 141.682 141.287 137.768C137.404 126.179 133.668 113.533 131.275 104.926ZM149.217 158.736C149.13 160.331 148.791 161.94 148.256 163.442H151.642C150.872 162.165 150.059 160.571 149.217 158.736ZM162.633 163.442H174.384C171.334 161.495 168.727 158.399 166.592 155.038C163.016 149.407 160.539 142.692 159.33 138.161C158.344 136.397 157.6 133.557 157.018 130.246C156.413 126.81 155.959 122.723 155.622 118.491C155.027 111.004 154.796 103.005 154.761 97.2288C153.233 98.441 151.835 99.5522 150.736 100.544C149.719 101.461 149.083 102.171 148.798 102.674C149.205 112.286 150.412 126.747 152.721 139.244C153.888 145.557 155.327 151.321 157.067 155.694C157.937 157.881 158.867 159.683 159.85 161.021C160.787 162.298 161.721 163.085 162.633 163.442ZM147.69 100.675C148.162 100.106 148.751 99.5318 149.377 98.9672C150.543 97.9154 152.011 96.751 153.536 95.5407L153.556 95.5248L153.558 95.5233L153.56 95.5217L153.561 95.5207L153.565 95.5183C154.087 95.1037 154.618 94.6827 155.15 94.2551C157.252 92.569 159.344 90.8145 160.971 89.0764C162.628 87.3061 163.655 85.7055 163.865 84.3427C163.879 84.2566 163.902 84.1724 163.936 84.0922C164.935 81.7154 165.081 79.7766 164.755 78.1596C164.427 76.5332 163.603 75.1341 162.503 73.8781C161.398 72.6155 160.045 71.5324 158.703 70.5316C158.411 70.3142 158.116 70.0979 157.822 69.8831C157.23 69.449 156.646 69.021 156.116 68.6014C155.185 70.3826 154.119 72.026 152.898 73.4566C150.986 84.4378 145.719 91.3258 142.533 94.08L147.69 100.675ZM156.811 95.593C156.809 101.386 157.022 110.168 157.67 118.32C158.004 122.518 158.451 126.53 159.04 129.874C159.109 130.261 159.178 130.639 159.249 131.005C159.459 130.048 159.769 129.18 160.17 128.395C161.387 126.013 163.378 124.544 165.641 123.712C169.489 122.297 174.247 122.677 177.923 123.54C177.552 121.722 177.2 119.889 176.847 118.054C175.882 113.04 174.913 108.008 173.562 103.219C171.747 96.7833 169.28 90.9647 165.333 86.4984C164.7 87.8967 163.648 89.2562 162.455 90.5301C160.825 92.2705 158.795 93.9915 156.811 95.593ZM178.402 125.827C174.81 124.846 169.984 124.35 166.335 125.691C164.447 126.384 162.919 127.552 161.99 129.369C161.058 131.193 160.66 133.807 161.291 137.523C162.451 141.907 164.862 148.456 168.315 153.892C171.072 158.23 174.354 161.649 178.041 162.913C177.521 162.253 177.029 161.528 176.572 160.765C175.503 158.978 174.587 156.919 173.934 154.857C173.1 154.44 172.123 153.581 171.167 152.242C169.96 150.55 168.719 147.998 167.768 144.292C167.24 142.23 167.53 140.447 168.421 138.974C169.29 137.535 170.676 136.482 172.195 135.713C174.733 134.427 177.871 133.822 180.366 133.618C179.615 131.124 178.982 128.505 178.402 125.827ZM181.025 135.678C178.622 135.824 175.503 136.383 173.107 137.597C171.785 138.266 170.763 139.095 170.168 140.079C169.594 141.028 169.36 142.212 169.757 143.758C170.655 147.266 171.801 149.564 172.827 151.003C172.916 151.128 173.003 151.245 173.089 151.356C172.89 150.12 172.814 148.923 172.894 147.831C173.038 145.891 173.706 144.036 175.356 143.104C178.142 141.532 180.683 140.684 182.976 140.553C182.243 139.007 181.6 137.375 181.025 135.678ZM176.348 144.945C175.589 145.373 175.065 146.346 174.944 147.99C174.825 149.607 175.124 151.64 175.751 153.759C176.362 155.818 177.266 157.898 178.325 159.668C179.393 161.453 180.575 162.846 181.707 163.618C182.353 164.058 182.93 164.26 183.428 164.273C183.902 164.287 184.392 164.134 184.907 163.69C186.735 162.111 188.815 159.051 190.12 155.797C190.767 154.181 191.204 152.564 191.336 151.106C191.467 149.64 191.285 148.418 190.785 147.507C189.346 144.883 187.514 143.313 185.265 142.814C184.267 142.592 183.146 142.572 181.889 142.794C181.631 142.84 181.367 142.896 181.098 142.962C180.242 143.173 179.329 143.491 178.353 143.928C177.712 144.214 177.044 144.552 176.348 144.945ZM130.753 152.39C130.935 151.714 131.282 151.257 131.746 150.996C135.55 148.849 138.531 148.332 140.837 148.906C143.004 149.445 144.78 151 146.183 153.558C147.714 156.35 147.416 160.555 145.786 164.039C145.058 165.594 144.093 166.938 142.986 167.894C141.918 168.816 140.517 168.765 138.759 167.652C137.445 166.821 136.09 165.474 134.866 163.854C134.865 163.853 134.864 163.851 134.863 163.85C134.456 163.312 134.067 162.748 133.701 162.17C133.693 162.158 133.686 162.145 133.678 162.133C132.383 160.077 131.381 157.833 130.908 155.851C130.842 155.57 130.787 155.299 130.743 155.038C130.742 155.033 130.741 155.028 130.74 155.024C130.556 153.921 130.576 153.051 130.753 152.39ZM87.2021 101.5C87.5571 101.676 87.7828 102.043 87.7828 102.447V106.043L93.145 106.865C93.6259 106.939 93.9903 107.347 94.0184 107.844C94.0465 108.34 93.7304 108.789 93.2611 108.919L87.7828 110.436V115.949C87.7828 116.368 87.5409 116.745 87.1667 116.913C86.7924 117.08 86.3569 117.005 86.0572 116.721L81.3146 112.227L73.6077 114.361C73.1373 114.492 72.6421 114.266 72.4223 113.821C72.2025 113.376 72.3187 112.834 72.7003 112.524L77.5064 108.619L74.723 105.982C74.3923 105.669 74.2998 105.171 74.4951 104.756C74.6903 104.34 75.1276 104.103 75.5734 104.172L81.8047 105.127L86.1164 101.624C86.4251 101.373 86.847 101.325 87.2021 101.5ZM79.6039 106.915L78.5631 106.755L79.1343 107.296L79.6039 106.915ZM80.6595 108.742L82.3834 107.341L85.7281 107.854V108.827L81.876 109.894L80.6595 108.742ZM79.0316 110.064L77.8783 111.001L79.536 110.542L79.0316 110.064ZM83.6546 111.579L85.7281 113.544V111.005L83.6546 111.579ZM87.7828 108.258L87.9917 108.201L87.7828 108.169V108.258ZM85.7281 105.728L84.5841 105.553L85.7281 104.624V105.728Z" fill="#298BE9"/>
<path d="M161.122 39.2308C156.112 39.8003 144.587 39.2308 138.574 32.3967C137.739 38.0918 132.895 48.4568 120.201 44.3564C119.687 47.9338 119.599 52.9495 120.601 58.0247C122.312 66.685 127.201 77.227 138.574 79.3814C144.291 80.4644 148.65 76.721 151.936 72.9826C153.432 71.2808 154.706 69.2259 155.785 66.9516C159.813 58.4579 161.122 46.9018 161.122 39.2308Z" fill="white"/>
<path d="M120.201 44.3564C117.696 44.6411 112.685 44.6981 112.685 49.482C112.685 54.2659 117.963 57.7399 120.601 58.0247C119.599 52.9494 119.687 47.9338 120.201 44.3564Z" fill="white"/>
<path d="M138.574 79.3814C127.201 77.2269 122.312 66.685 120.601 58.0247L120.201 64.1011L120.601 77.6729C126.314 80.8052 138.407 88.4366 141.08 93.904C143.863 91.9161 149.932 84.9488 151.936 72.9825C148.65 76.721 144.291 80.4644 138.574 79.3814Z" fill="white"/>
<path d="M134.05 164.493C137.044 168.453 140.923 171.051 143.649 168.697C144.888 167.627 145.935 166.154 146.712 164.493C148.429 160.824 148.83 156.238 147.079 153.044C145.581 150.312 143.601 148.513 141.08 147.885C138.426 147.225 135.173 147.862 131.25 150.076C127.803 152.02 130.191 159.389 134.05 164.493Z" fill="white"/>
<path d="M184.474 141.627C182.059 141.394 179.199 142.135 175.852 144.025C173.442 145.385 173.468 149.682 174.768 154.063C176.038 158.347 178.524 162.713 181.138 164.493C182.642 165.517 184.187 165.686 185.569 164.493C189.543 161.061 194.226 151.634 191.681 146.994C189.952 143.84 187.58 141.928 184.474 141.627Z" fill="white"/>
<path d="M175.852 144.025C179.298 142.079 182.227 141.352 184.687 141.652C183.527 139.499 182.57 137.125 181.75 134.594C176.65 134.731 166.914 136.809 168.763 144.025C170.612 151.24 173.536 153.724 174.768 154.063C173.468 149.682 173.443 145.385 175.852 144.025Z" fill="#298BE9"/>
<path d="M134.05 164.493C130.191 159.389 127.803 152.02 131.25 150.076C135.173 147.862 138.426 147.225 141.08 147.885C140.846 144.321 139.329 138.513 135.192 139.428C134.442 139.594 133.606 139.981 132.675 140.642C126.614 144.95 122.845 147.4 122.273 154.063C121.798 159.592 123.386 165.48 127.514 167.228C130.036 166.465 132.25 165.553 134.05 164.493Z" fill="#298BE9"/>
<path d="M138.574 32.3967C144.587 39.2308 156.112 39.8003 161.122 39.2308C181.166 33.08 181.448 26.1762 174.768 18.203C169.192 11.5489 161.122 9.04765 161.122 9.04765C161.122 9.04765 132.675 2.82463 127.514 21.4781L127.51 21.4797C125.832 22.0517 119.531 24.2002 116.861 28.9795C114.189 33.7634 117.975 41.2241 120.201 44.3564C132.895 48.4568 137.739 38.0918 138.574 32.3967Z" fill="#298BE9"/>
<path fill-rule="evenodd" clip-rule="evenodd" d="M141.08 93.904L131.893 103.301C136.619 120.468 147.575 156.74 153.596 164.493H162.455C152.605 161.13 148.554 121.728 147.76 102.447L141.08 93.904Z" fill="#298BE9"/>
<path d="M82.094 106.234L79.0829 108.68L81.5953 111.061L86.7554 109.632V106.948L82.094 106.234Z" fill="#298BE9"/>
<path d="M82.0941 106.234L86.7555 106.948V102.447L82.0941 106.234Z" fill="#298BE9"/>
<path d="M79.0829 108.68L82.094 106.234L75.4211 105.211L79.0829 108.68Z" fill="#298BE9"/>
<path d="M81.5954 111.061L79.083 108.68L73.3393 113.347L81.5954 111.061Z" fill="#298BE9"/>
<path d="M86.7554 109.632L81.5953 111.061L86.7554 115.949V109.632Z" fill="#298BE9"/>
<path d="M86.7554 106.948V109.632L92.9928 107.905L86.7554 106.948Z" fill="#298BE9"/>
<path fill-rule="evenodd" clip-rule="evenodd" d="M146.354 9.31377C138.714 10.078 130.903 13.0891 128.503 21.7642C128.41 22.099 128.162 22.3651 127.839 22.4751L127.835 22.4767C127.005 22.7594 125.087 23.4145 123.057 24.5702C121.013 25.7336 118.955 27.3493 117.753 29.501C116.634 31.5047 116.81 34.204 117.673 36.9677C118.472 39.5299 119.797 41.935 120.836 43.4566C126.674 45.2436 130.567 43.7498 133.131 41.2841C135.815 38.7028 137.163 34.9346 137.558 32.2407C137.617 31.8385 137.898 31.5072 138.278 31.3902C138.659 31.2731 139.072 31.3912 139.338 31.6936C142.141 34.8792 146.286 36.6599 150.438 37.562C154.527 38.4506 158.5 38.4597 160.918 38.1965C165.841 36.6803 169.504 35.1333 172.132 33.5639C174.783 31.9811 176.304 30.4204 177.051 28.9227C178.477 26.0638 177.302 22.8417 173.987 18.8869C171.313 15.6945 168.021 13.4803 165.377 12.0606C164.059 11.3528 162.91 10.8477 162.095 10.5208C161.688 10.3575 161.365 10.2389 161.146 10.162C161.037 10.1236 160.954 10.0956 160.899 10.0776C160.886 10.0732 160.875 10.0694 160.864 10.0662L160.837 10.0603C160.786 10.0499 160.709 10.0343 160.609 10.0145C160.407 9.97502 160.107 9.91882 159.722 9.85346C158.951 9.7227 157.841 9.55555 156.491 9.41208C153.786 9.12466 150.142 8.93485 146.354 9.31377ZM161.122 9.04764C161.42 8.04184 161.42 8.04193 161.421 8.04203L161.424 8.04296L161.43 8.045L161.452 8.05191C161.471 8.05777 161.496 8.06615 161.53 8.07711C161.596 8.09903 161.691 8.13125 161.814 8.1742C162.058 8.26007 162.41 8.38891 162.845 8.56403C163.718 8.91405 164.936 9.45019 166.331 10.1994C169.115 11.6938 172.648 14.0573 175.548 17.519C178.915 21.5374 180.939 25.7538 178.882 29.8778C177.887 31.8716 175.999 33.6885 173.167 35.3792C170.468 36.9913 166.843 38.53 162.146 40.011C162.062 47.5227 160.776 58.3537 157.048 66.6765C157.585 67.1221 158.224 67.5905 158.939 68.1149C159.25 68.3429 159.575 68.5814 159.913 68.8331C161.277 69.8504 162.776 71.0401 164.034 72.4756C165.297 73.9177 166.346 75.6421 166.768 77.7355C167.156 79.6638 166.995 81.8227 166.089 84.2546C170.803 89.1752 173.575 95.6855 175.537 102.637C176.912 107.512 177.911 112.701 178.886 117.767C179.343 120.141 179.795 122.487 180.278 124.762C180.986 128.096 181.763 131.297 182.725 134.263C183.473 136.571 184.33 138.728 185.346 140.689C185.465 140.71 185.584 140.734 185.701 140.76C188.684 141.422 190.941 143.496 192.577 146.479C193.351 147.889 193.536 149.585 193.382 151.299C193.226 153.021 192.722 154.845 192.02 156.595C190.626 160.073 188.377 163.443 186.232 165.296C185.365 166.044 184.391 166.404 183.371 166.374C182.479 166.349 181.625 166.03 180.84 165.544H147.345C146.552 167.073 145.527 168.451 144.312 169.5C142.26 171.272 139.786 170.774 137.678 169.44C136.316 168.578 134.987 167.309 133.788 165.838C132.058 166.764 130.037 167.56 127.806 168.235C118.987 170.903 106.557 171.771 94.8003 170.923C83.0795 170.077 71.7841 167.508 65.3487 163.12C56.8936 157.354 53.3162 149.828 53.0202 141.647C52.7268 133.537 55.6582 124.876 60.0058 116.721C63.1581 110.808 69.4413 103.498 75.7772 96.8481C81.3038 91.0472 86.9411 85.6766 90.7194 82.0771C91.1698 81.648 91.5938 81.2441 91.988 80.8677C92.1714 78.0752 93.1944 75.204 95.4774 72.4485C95.7156 71.8453 96.1844 71.3325 96.679 70.9088C97.2666 70.4054 98.0273 69.914 98.8915 69.4406C100.624 68.4919 102.898 67.5483 105.358 66.6884C109.936 65.0875 115.288 63.7314 119.233 63.1686L119.516 58.8731C118.079 58.4655 116.39 57.518 114.971 56.2254C113.198 54.6112 111.658 52.2839 111.658 49.482C111.658 48.0863 112.028 46.9542 112.691 46.0656C113.344 45.1896 114.223 44.6285 115.119 44.2577C116.18 43.8188 117.372 43.6117 118.4 43.4873C117.438 41.8923 116.404 39.814 115.715 37.6069C114.796 34.6613 114.416 31.2382 115.969 28.4581C117.437 25.8304 119.864 23.9822 122.058 22.7335C123.908 21.6802 125.663 21.0143 126.682 20.6561C129.612 11.0982 138.423 7.9952 146.154 7.22184C150.123 6.82484 153.913 7.02494 156.703 7.32142C158.101 7.46991 159.252 7.6432 160.058 7.77989C160.461 7.84826 160.777 7.90754 160.995 7.95007C161.104 7.97134 161.187 7.98843 161.245 8.00039L161.311 8.01436L161.33 8.01824L161.336 8.01971C161.337 8.01983 161.337 8.01992 161.122 9.04764ZM119.02 45.5342C117.976 45.6452 116.865 45.8024 115.889 46.2063C115.219 46.4833 114.689 46.8512 114.324 47.3403C113.969 47.8168 113.713 48.4857 113.713 49.482C113.713 51.464 114.811 53.2657 116.337 54.6557C117.311 55.5426 118.383 56.1917 119.303 56.5777C118.682 52.5478 118.694 48.6485 119.02 45.5342ZM119.209 65.2956C115.455 65.8606 110.392 67.1495 106.022 68.6773C103.615 69.5191 101.456 70.4204 99.8614 71.2937C99.0623 71.7313 98.4363 72.1451 97.9981 72.5203C97.5341 72.9178 97.3976 73.1737 97.3725 73.2656C97.3316 73.4151 97.2589 73.5534 97.1596 73.6707C94.97 76.2558 94.1061 78.8806 94.0196 81.3807C94.0196 81.3822 94.0195 81.3836 94.0195 81.385C94.0159 81.4886 94.0136 81.5919 94.0128 81.695C93.9894 84.3149 94.8024 86.8562 95.9409 89.1137C97.0777 91.368 98.5146 93.2904 99.6754 94.6546C100.254 95.3347 100.76 95.8711 101.119 96.2355C101.298 96.4175 101.44 96.5562 101.536 96.6481C101.56 96.6702 101.58 96.6898 101.598 96.7064C101.605 96.7108 101.614 96.7154 101.622 96.7202C101.706 96.7675 101.83 96.8376 101.994 96.9275C102.32 97.1076 102.799 97.367 103.406 97.6822C104.62 98.3128 106.34 99.1645 108.362 100.047C112.426 101.82 117.632 103.682 122.375 104.165C125.916 104.526 129.023 104.101 131.226 102.498L139.801 93.7255C139.158 92.6802 138.148 91.51 136.853 90.2686C135.298 88.7777 133.396 87.2429 131.382 85.7672C127.354 82.816 122.942 80.1485 120.116 78.5992C119.792 78.4216 119.585 78.0803 119.574 77.7045L119.209 65.2956ZM140.994 95.4774L146.748 102.835C147.161 112.51 148.375 127.038 150.702 139.634C151.879 146.003 153.349 151.924 155.164 156.487C156.071 158.767 157.079 160.747 158.207 162.283C158.512 162.698 158.829 163.086 159.16 163.442H154.106C152.752 161.53 151.094 158.108 149.277 153.669C147.342 148.941 145.268 143.167 143.231 137.086C139.249 125.203 135.42 112.193 133.046 103.608L140.994 95.4774ZM131.275 104.926C129.007 106.144 126.289 106.498 123.494 106.358C124.291 111.232 125.739 118.102 127.729 124.316C128.818 127.713 130.059 130.881 131.427 133.41C132.719 135.797 134.057 137.483 135.382 138.327C136.51 138.17 137.517 138.419 138.374 138.975C139.304 139.577 139.995 140.498 140.507 141.484C141.397 143.199 141.858 145.325 142.041 147.076C143.229 147.479 144.289 148.122 145.231 148.966C143.929 145.481 142.599 141.682 141.287 137.768C137.404 126.179 133.668 113.533 131.275 104.926ZM149.217 158.736C149.13 160.331 148.791 161.94 148.256 163.442H151.642C150.872 162.165 150.059 160.571 149.217 158.736ZM139.915 146.627C139.712 145.214 139.319 143.678 138.692 142.47C138.279 141.674 137.8 141.09 137.275 140.75C136.779 140.428 136.184 140.284 135.409 140.456C134.825 140.584 134.113 140.9 133.262 141.505C133.064 141.645 132.869 141.784 132.677 141.92C129.889 143.9 127.741 145.423 126.174 147.179C124.556 148.991 123.563 151.052 123.296 154.155C123.07 156.799 123.341 159.494 124.132 161.702C124.875 163.773 126.037 165.324 127.587 166.107C129.442 165.528 131.1 164.871 132.521 164.141C132.326 163.855 132.136 163.566 131.951 163.272C131.905 163.199 131.86 163.127 131.815 163.054C130.479 160.888 129.429 158.518 128.912 156.348C128.835 156.023 128.768 155.699 128.715 155.377C128.53 154.27 128.497 153.195 128.682 152.228C128.707 152.098 128.736 151.97 128.77 151.844C129.058 150.729 129.671 149.766 130.753 149.155C134.18 147.222 137.235 146.383 139.915 146.627ZM130.753 152.39C130.935 151.714 131.282 151.257 131.746 150.996C135.55 148.849 138.531 148.331 140.837 148.906C143.004 149.445 144.78 151 146.183 153.558C147.714 156.35 147.416 160.554 145.786 164.039C145.058 165.593 144.093 166.938 142.986 167.894C141.918 168.816 140.517 168.765 138.759 167.652C137.445 166.821 136.09 165.474 134.866 163.854C134.865 163.853 134.864 163.851 134.863 163.85C134.456 163.312 134.067 162.748 133.701 162.17C133.693 162.158 133.686 162.145 133.678 162.133C132.383 160.077 131.381 157.833 130.908 155.851C130.842 155.57 130.787 155.299 130.743 155.038C130.586 154.103 130.573 153.29 130.699 152.634C130.715 152.55 130.733 152.468 130.753 152.39ZM124.997 166.833C123.732 165.688 122.816 164.136 122.203 162.425C121.287 159.871 121.002 156.857 121.25 153.971C121.555 150.411 122.733 147.916 124.657 145.761C126.387 143.823 128.725 142.164 131.434 140.243C131.504 140.194 131.574 140.144 131.644 140.095L97.1204 136.301C96.5563 136.239 96.1481 135.721 96.2087 135.144C96.2693 134.566 96.7758 134.149 97.34 134.211L132 138.021C131.144 136.997 130.356 135.769 129.63 134.427C128.174 131.739 126.886 128.434 125.777 124.971C123.672 118.4 122.17 111.142 121.38 106.165C116.556 105.538 111.469 103.687 107.556 101.98C105.483 101.076 103.721 100.203 102.475 99.5563C101.853 99.2326 101.358 98.965 101.018 98.7776C100.849 98.6839 100.717 98.6102 100.628 98.5596C100.583 98.5342 100.549 98.5147 100.525 98.5012L100.498 98.4857L100.489 98.4802C100.488 98.4801 100.488 98.4797 100.994 97.565C100.311 98.3507 100.311 98.3504 100.311 98.3501L100.309 98.3491L100.306 98.3462L100.296 98.337L100.261 98.3042C100.231 98.2761 100.188 98.2355 100.133 98.183C100.023 98.078 99.866 97.9249 99.6714 97.7274C99.2824 97.3326 98.7417 96.7587 98.1254 96.0346C96.8967 94.5904 95.3507 92.528 94.1147 90.0773C93.1502 88.1648 92.3595 85.9858 92.0729 83.6599C88.2934 87.2608 82.7167 92.5757 77.2487 98.315C71.1468 104.72 65.2663 111.566 62.1573 117.094C64.5352 119.766 68.8492 122.885 73.9145 125.019C79.3225 127.298 85.4091 128.38 90.7547 126.766C91.2989 126.601 91.8703 126.919 92.031 127.476C92.1917 128.032 91.8808 128.617 91.3366 128.782C85.3697 130.584 78.7723 129.34 73.132 126.962C68.1734 124.873 63.8171 121.852 61.1264 119.037C57.2548 126.626 54.8146 134.409 55.0736 141.57C55.345 149.07 58.5791 155.977 66.4885 161.372C72.4586 165.442 83.2996 167.985 94.9448 168.826C105.575 169.592 116.672 168.927 124.997 166.833ZM100.994 97.565L100.311 98.3501C100.365 98.3993 100.424 98.4432 100.488 98.4797L100.994 97.565ZM162.633 163.442H174.384C171.334 161.495 168.727 158.399 166.592 155.038C163.016 149.407 160.539 142.692 159.33 138.161C158.344 136.397 157.6 133.557 157.018 130.246C156.413 126.81 155.959 122.723 155.622 118.491C155.027 111.004 154.796 103.005 154.761 97.2288C153.233 98.4409 151.835 99.5522 150.736 100.544C149.719 101.461 149.083 102.171 148.798 102.674C149.205 112.286 150.412 126.747 152.721 139.244C153.888 145.557 155.327 151.321 157.067 155.694C157.937 157.881 158.867 159.683 159.85 161.021C160.787 162.298 161.721 163.085 162.633 163.442ZM147.69 100.675C148.162 100.106 148.751 99.5318 149.377 98.9672C150.543 97.9155 152.01 96.7513 153.536 95.5411L153.556 95.5248C154.081 95.1082 154.615 94.685 155.15 94.2551C157.252 92.5689 159.344 90.8145 160.971 89.0763C162.628 87.3061 163.655 85.7055 163.865 84.3428C163.879 84.2565 163.902 84.1724 163.936 84.0921C164.935 81.7154 165.081 79.7765 164.755 78.1596C164.427 76.5332 163.603 75.1341 162.503 73.8781C161.398 72.6155 160.045 71.5324 158.703 70.5316C158.411 70.3142 158.116 70.0979 157.822 69.8832C157.23 69.449 156.646 69.021 156.116 68.6014C155.185 70.3826 154.119 72.026 152.898 73.4566C150.986 84.4378 145.719 91.3258 142.533 94.08L147.69 100.675ZM141.367 92.3338C143.878 90.0946 148.05 84.7562 150.197 76.2712C147.149 79.0751 143.242 81.3344 138.387 80.4148C128.983 78.6333 123.85 71.4325 121.232 64.1754L121.61 77.0364C124.499 78.6488 128.705 81.2207 132.579 84.0584C134.636 85.5656 136.615 87.1596 138.258 88.7351C139.501 89.9267 140.589 91.1429 141.367 92.3338ZM156.811 95.593C156.809 101.386 157.022 110.168 157.67 118.32C158.004 122.518 158.451 126.53 159.04 129.874C159.109 130.261 159.178 130.639 159.249 131.005C159.459 130.048 159.769 129.18 160.17 128.395C161.387 126.013 163.378 124.544 165.641 123.712C169.489 122.297 174.247 122.677 177.923 123.54C177.552 121.722 177.2 119.889 176.847 118.054C175.882 113.04 174.913 108.008 173.562 103.219C171.747 96.7832 169.28 90.9647 165.333 86.4984C164.7 87.8966 163.648 89.2562 162.455 90.5302C160.825 92.2704 158.795 93.9915 156.811 95.593ZM178.402 125.827C174.81 124.846 169.984 124.35 166.335 125.691C164.447 126.384 162.919 127.552 161.99 129.369C161.058 131.193 160.66 133.807 161.291 137.523C162.451 141.907 164.862 148.456 168.315 153.892C171.072 158.23 174.354 161.649 178.041 162.913C177.521 162.253 177.029 161.528 176.572 160.765C175.503 158.978 174.587 156.919 173.934 154.857C173.1 154.44 172.123 153.581 171.167 152.242C169.96 150.55 168.719 147.998 167.768 144.292C167.24 142.23 167.53 140.447 168.421 138.974C169.29 137.535 170.676 136.482 172.195 135.713C174.733 134.427 177.871 133.822 180.366 133.618C179.615 131.124 178.982 128.505 178.402 125.827ZM181.025 135.678C178.622 135.824 175.503 136.383 173.107 137.597C171.785 138.266 170.763 139.095 170.168 140.079C169.594 141.028 169.36 142.212 169.757 143.758C170.655 147.266 171.801 149.564 172.827 151.003C172.916 151.128 173.003 151.245 173.089 151.356C172.89 150.12 172.814 148.923 172.894 147.831C173.038 145.891 173.706 144.036 175.356 143.104C178.142 141.532 180.683 140.684 182.976 140.553C182.243 139.007 181.6 137.375 181.025 135.678ZM176.348 144.945C175.589 145.373 175.065 146.346 174.944 147.99C174.825 149.607 175.124 151.64 175.751 153.759C176.362 155.818 177.266 157.898 178.325 159.668C179.393 161.453 180.575 162.846 181.707 163.618C182.353 164.058 182.93 164.26 183.428 164.273C183.902 164.287 184.392 164.134 184.907 163.69C186.735 162.111 188.815 159.051 190.12 155.797C190.767 154.181 191.204 152.564 191.336 151.106C191.467 149.64 191.285 148.418 190.785 147.507C189.346 144.883 187.514 143.313 185.265 142.814C184.409 142.624 183.463 142.582 182.419 142.714C180.679 142.934 178.666 143.637 176.348 144.945ZM121.069 45.7052C120.713 49.0581 120.739 53.4173 121.608 57.8165C123.295 66.3537 128.029 76.3151 138.761 78.348C143.892 79.32 147.903 75.9984 151.172 72.2798C152.589 70.6681 153.812 68.7016 154.86 66.4927C158.599 58.6116 159.96 47.941 160.086 40.3779C157.474 40.553 153.792 40.4396 150.011 39.6181C146.238 38.7982 142.272 37.2523 139.193 34.4931C138.485 37.2149 137.032 40.4182 134.538 42.8156C131.537 45.7021 127.133 47.3149 121.069 45.7052ZM161.122 9.04764L161.336 8.01971C161.365 8.02583 161.393 8.03355 161.421 8.04203L161.122 9.04764ZM87.2021 101.5C87.5571 101.676 87.7828 102.043 87.7828 102.447V106.043L93.145 106.865C93.6259 106.939 93.9903 107.347 94.0184 107.844C94.0465 108.34 93.7304 108.789 93.2611 108.919L87.7828 110.436V115.949C87.7828 116.368 87.5409 116.745 87.1667 116.913C86.7924 117.08 86.3569 117.005 86.0572 116.721L81.3146 112.227L73.6077 114.361C73.1373 114.492 72.6421 114.266 72.4223 113.82C72.2025 113.376 72.3187 112.834 72.7003 112.524L77.5064 108.619L74.723 105.982C74.3923 105.669 74.2998 105.171 74.4951 104.756C74.6903 104.34 75.1276 104.103 75.5734 104.172L81.8047 105.127L86.1164 101.624C86.4251 101.373 86.847 101.325 87.2021 101.5ZM79.6039 106.915L78.5631 106.755L79.1343 107.296L79.6039 106.915ZM80.6595 108.742L82.3834 107.341L85.7281 107.854V108.827L81.876 109.894L80.6595 108.742ZM79.0316 110.064L77.8783 111.001L79.536 110.542L79.0316 110.064ZM83.6546 111.579L85.7281 113.544V111.005L83.6546 111.579ZM87.7828 108.258L87.9917 108.201L87.7828 108.169V108.258ZM85.7281 105.728L84.5841 105.553L85.7281 104.624V105.728Z" fill="#298BE9"/>
<path fill-rule="evenodd" clip-rule="evenodd" d="M143.883 46.9361C144.401 47.1736 144.633 47.7954 144.401 48.325L142.731 52.1348C142.499 52.6644 141.891 52.9013 141.373 52.6639C140.856 52.4265 140.624 51.8047 140.856 51.275L142.526 47.4653C142.758 46.9356 143.366 46.6987 143.883 46.9361ZM154.723 48.0126C155.227 48.2793 155.424 48.9134 155.163 49.429L153.237 53.2387C152.976 53.7542 152.356 53.956 151.852 53.6893C151.348 53.4226 151.151 52.7886 151.412 52.273L153.338 48.4632C153.599 47.9478 154.219 47.746 154.723 48.0126ZM143.272 60.0062C143.471 59.4628 144.063 59.1874 144.594 59.3912L148.704 60.9676C149.235 61.1714 149.504 61.7773 149.305 62.3207C149.106 62.8642 148.514 63.1395 147.982 62.9357L143.873 61.3593C143.342 61.1555 143.072 60.5498 143.272 60.0062ZM138.908 63.1358C139.474 63.1018 139.961 63.5438 139.994 64.1232C140.012 64.4303 140.224 64.7595 140.886 65.0609C141.525 65.3524 142.324 65.4805 142.856 65.4993C143.423 65.5193 143.867 66.0058 143.848 66.5858C143.828 67.1659 143.353 67.62 142.786 67.6C142.077 67.575 141 67.414 140.05 66.9809C139.12 66.5574 138.028 65.7263 137.943 64.2467C137.909 63.6672 138.341 63.1699 138.908 63.1358Z" fill="#298BE9"/>
<path d="M224.157 107.016C223.927 104.548 225.825 102.414 228.248 102.414H245.552C247.501 102.414 249.183 103.815 249.576 105.768L256.744 141.298L261.237 163.57C261.763 166.179 259.815 168.623 257.212 168.623H233.63C231.511 168.623 229.739 166.976 229.539 164.819L224.157 107.016Z" fill="white"/>
<path d="M229.294 107.016C229.064 104.548 230.962 102.414 233.385 102.414H245.552C247.501 102.414 249.183 103.815 249.576 105.768L256.744 141.298L261.237 163.57C261.763 166.179 259.815 168.623 257.212 168.623H238.767C236.648 168.623 234.876 166.976 234.676 164.819L229.294 107.016Z" fill="white"/>
<path d="M229.539 164.819C229.739 166.976 231.511 168.623 233.63 168.623H215.638C213.581 168.623 211.914 166.918 211.914 164.814C211.914 162.71 213.581 161.004 215.638 161.004H229.183L229.539 164.819Z" fill="white"/>
<path d="M271.503 67.732H187.267C184.43 67.732 182.13 70.0846 182.13 72.9868V136.044C182.13 138.946 184.43 141.298 187.267 141.298H227.349L224.157 107.016C223.927 104.548 225.825 102.414 228.248 102.414H233.385H245.552C247.501 102.414 249.183 103.815 249.576 105.768L256.744 141.298H271.503C274.339 141.298 276.64 138.946 276.64 136.044V72.9868C276.64 70.0846 274.339 67.732 271.503 67.732Z" fill="white"/>
<path d="M182.13 136.044V72.9868C182.13 70.0846 184.43 67.732 187.267 67.732H181.605C178.768 67.732 176.469 70.0846 176.469 72.9868V136.044C176.469 138.946 178.768 141.298 181.605 141.298H187.267C184.43 141.298 182.13 138.946 182.13 136.044Z" fill="white"/>
<path fill-rule="evenodd" clip-rule="evenodd" d="M175.441 72.9868C175.441 69.5041 178.201 66.681 181.605 66.681H271.503C274.907 66.681 277.667 69.5041 277.667 72.9868V136.044C277.667 139.527 274.907 142.349 271.503 142.349H258.005L262.243 163.358C262.9 166.618 260.466 169.674 257.212 169.674H215.638C213.013 169.674 210.886 167.499 210.886 164.814C210.886 162.129 213.013 159.953 215.638 159.953H228.053L226.414 142.349H181.605C178.201 142.349 175.441 139.527 175.441 136.044V72.9868ZM182.673 140.247H181.605C179.336 140.247 177.496 138.365 177.496 136.044V72.9868C177.496 70.665 179.336 68.7829 181.605 68.7829H182.673C181.697 69.8985 181.103 71.3717 181.103 72.9868V136.044C181.103 137.659 181.697 139.132 182.673 140.247ZM187.267 140.247H226.219L223.134 107.115C222.847 104.031 225.218 101.363 228.248 101.363H245.552C247.989 101.363 250.09 103.114 250.583 105.555L257.58 140.247H271.503C273.772 140.247 275.612 138.365 275.612 136.044V72.9868C275.612 70.665 273.772 68.7829 271.503 68.7829H187.267C184.998 68.7829 183.158 70.665 183.158 72.9868V136.044C183.158 138.365 184.998 140.247 187.267 140.247ZM229.276 103.464H228.248C226.431 103.464 225.008 105.065 225.179 106.916L230.561 164.719C230.712 166.336 232.04 167.572 233.63 167.572H234.656C234.105 166.822 233.746 165.914 233.652 164.918L228.271 107.115C228.145 105.752 228.537 104.471 229.276 103.464ZM238.767 167.572C237.177 167.572 235.849 166.336 235.698 164.719L230.316 106.916C230.145 105.065 231.568 103.464 233.385 103.464H245.552C247.014 103.464 248.274 104.515 248.57 105.98L260.23 163.783C260.625 165.738 259.165 167.572 257.212 167.572H238.767ZM229.519 167.572C228.968 166.822 228.609 165.914 228.515 164.918L228.249 162.055H215.638C214.148 162.055 212.941 163.291 212.941 164.814C212.941 166.337 214.148 167.572 215.638 167.572H229.519Z" fill="#298BE9"/>
<path d="M185.569 164.493C184.187 165.686 182.642 165.517 181.138 164.493H162.455H153.596H146.712C145.952 166.117 144.935 167.561 143.733 168.623H204.979C206.113 168.623 207.034 167.683 207.034 166.521V163.106C207.034 161.946 206.113 161.004 204.979 161.004H188.531C187.581 162.426 186.552 163.643 185.569 164.493Z" fill="white"/>
<path fill-rule="evenodd" clip-rule="evenodd" d="M187.989 159.953H204.979C206.681 159.953 208.061 161.364 208.061 163.106V166.521C208.061 168.263 206.681 169.674 204.979 169.674H140.973L143.061 167.829C144.137 166.878 145.075 165.559 145.786 164.039C145.956 163.674 146.317 163.442 146.712 163.442H181.138C181.34 163.442 181.539 163.503 181.707 163.618C182.353 164.058 182.93 164.26 183.428 164.273C183.902 164.287 184.392 164.134 184.907 163.69C185.799 162.918 186.767 161.779 187.683 160.411L187.989 159.953ZM189.065 162.055C188.165 163.339 187.194 164.465 186.232 165.296C185.365 166.044 184.391 166.404 183.371 166.374C182.479 166.349 181.625 166.029 180.84 165.544H147.345C146.974 166.26 146.552 166.942 146.084 167.572H204.979C205.546 167.572 206.006 167.103 206.006 166.521V163.106C206.006 162.526 205.546 162.055 204.979 162.055H189.065Z" fill="#298BE9"/>
<path d="M257.908 6.51334C258.19 4.70894 256.267 3.31458 254.824 4.40063C247.671 9.78554 240.519 18.0172 248.936 22.9448C250 23.5671 250.482 24.9431 249.856 26.0177L242.281 39.0242C241.633 40.1374 242.155 41.5766 243.359 41.9921L248.684 43.8316C249.562 44.1341 250.528 43.7837 251.021 42.9852L258.37 31.0573C259.027 29.9909 260.467 29.7923 261.517 30.4574C266.089 33.351 273.125 33.9285 276.085 20.3333C276.413 18.8279 274.955 17.5945 273.502 18.0264C268.993 19.3667 262.738 20.6521 259.733 19.27C256.906 17.9704 257.089 11.7492 257.908 6.51334Z" fill="#298BE9"/>
<path fill-rule="evenodd" clip-rule="evenodd" d="M256.446 5.2123C256.126 4.98812 255.754 4.96704 255.418 5.21974C251.87 7.89121 248.457 11.1768 246.937 14.2966C246.186 15.8396 245.948 17.238 246.266 18.4664C246.58 19.6774 247.487 20.922 249.434 22.0618C250.891 22.9143 251.677 24.8881 250.716 26.5371L243.141 39.5436C242.817 40.1007 243.078 40.8198 243.68 41.0276L249.005 42.867C249.444 43.0178 249.927 42.8426 250.174 42.4433L257.522 30.5165C258.529 28.8828 260.622 28.6913 262.045 29.5927C264.201 30.9565 266.739 31.647 269.007 30.6438C271.272 29.6436 273.656 26.7856 275.109 20.1123C275.248 19.4727 274.613 18.7577 273.782 19.0042C271.498 19.6835 268.751 20.3547 266.177 20.6796C263.657 20.9984 261.097 21.0147 259.322 20.1989C258.32 19.7385 257.656 18.8707 257.225 17.8767C256.797 16.8877 256.565 15.7031 256.457 14.4575C256.241 11.9642 256.505 9.00536 256.92 6.35304C256.996 5.86934 256.78 5.44615 256.446 5.2123ZM257.579 3.53378C258.497 4.17667 259.102 5.35296 258.895 6.67367C258.491 9.25796 258.254 12.0273 258.449 14.2782C258.547 15.4057 258.748 16.3468 259.055 17.0537C259.359 17.7555 259.732 18.1527 260.144 18.3421C261.374 18.9074 263.444 18.9726 265.931 18.6579C268.362 18.3513 270.997 17.7096 273.222 17.0486C275.297 16.4324 277.577 18.1832 277.061 20.5533C275.554 27.4752 272.94 31.1266 269.803 32.5128C266.671 33.8969 263.405 32.8519 260.989 31.3221C260.311 30.8933 259.525 31.098 259.217 31.5992L251.868 43.526C251.129 44.7248 249.679 45.2504 248.363 44.7961L243.038 42.9567C241.232 42.3333 240.448 40.1751 241.421 38.5047L248.996 25.4982C249.286 24.9992 249.108 24.22 248.438 23.8279C246.176 22.5038 244.821 20.8721 244.332 18.9858C243.848 17.1168 244.267 15.1959 245.145 13.3921C246.886 9.81814 250.625 6.29539 254.229 3.58165C255.336 2.74819 256.647 2.88121 257.579 3.53378Z" fill="#298BE9"/>
<path d="M27.4727 8.87952C15.5422 8.87952 5.87067 18.516 5.87067 30.4032C5.87067 42.2904 15.5422 51.9269 27.4727 51.9269H35.4243C36.072 51.9269 36.6563 52.3042 36.9524 52.8781C39.5553 57.9255 43.7882 62.0013 48.9581 64.4156C50.184 64.9881 51.5669 63.7631 51.4107 62.4232C51.0974 59.739 50.8891 56.1745 50.7945 53.6111C50.7603 52.6851 51.5115 51.933 52.4387 51.861C63.5734 50.9961 72.3382 41.7195 72.3382 30.4032C72.3382 18.516 62.6667 8.87952 50.7362 8.87952H27.4727Z" fill="white"/>
<path fill-rule="evenodd" clip-rule="evenodd" d="M27.4726 9.75902C16.0116 9.75902 6.74129 19.0131 6.74129 30.4032C6.74129 41.7933 16.0116 51.0474 27.4726 51.0474H35.4243C36.412 51.0474 37.2859 51.6213 37.7245 52.4718C40.2379 57.3456 44.3271 61.2841 49.3235 63.6173C49.571 63.7329 49.8697 63.6921 50.1465 63.4599C50.4306 63.2215 50.585 62.8611 50.546 62.5261C50.2289 59.8084 50.0194 56.2173 49.9245 53.6439C49.8706 52.1819 51.0446 51.0872 52.3719 50.984C63.0666 50.1534 71.4676 41.2462 71.4676 30.4032C71.4676 19.0131 62.1971 9.75902 50.7362 9.75902H27.4726ZM5 30.4032C5 18.0189 15.0726 8 27.4726 8H50.7362C63.1361 8 73.2089 18.0189 73.2089 30.4032C73.2089 42.1927 64.0801 51.8388 52.5055 52.7379C51.9784 52.7788 51.6502 53.1882 51.6645 53.5783C51.7587 56.1315 51.9661 59.6697 52.2752 62.3203C52.3925 63.3251 51.9335 64.2472 51.2589 64.8131C50.5768 65.3853 49.571 65.6708 48.5928 65.214C43.2492 62.7186 38.8727 58.5056 36.1802 53.2845C36.0269 52.9871 35.7317 52.8064 35.4243 52.8064H27.4726C15.0726 52.8064 5 42.7875 5 30.4032Z" fill="#298BE9"/>
<path fill-rule="evenodd" clip-rule="evenodd" d="M37.611 17.862C35.4102 19.2614 33.5596 21.923 32.4347 24.2865C32.2264 24.7243 31.7062 24.9085 31.2728 24.6981C30.8394 24.4876 30.657 23.9621 30.8654 23.5243C32.056 21.0225 34.0869 18.0244 36.6834 16.3733C37.9974 15.5376 39.4939 15.0243 41.1113 15.1435C42.7343 15.2631 44.3742 16.0121 45.9822 17.5101C47.6893 19.1006 48.027 21.2457 47.5295 23.2385C47.0385 25.2058 45.7313 27.0837 44.0397 28.3644C42.0935 29.838 40.4183 31.4393 39.5356 32.9516C39.0982 33.7011 38.8886 34.3725 38.8889 34.9589C38.8892 35.5198 39.0804 36.0739 39.5853 36.6269C39.9112 36.9839 39.8889 37.5404 39.5355 37.8697C39.1821 38.199 38.6312 38.1764 38.3053 37.8194C37.5227 36.9623 37.1482 35.9895 37.1476 34.9598C37.1472 33.9559 37.5015 32.9734 38.0356 32.0583C39.096 30.2415 40.9944 28.4719 42.9953 26.9569C44.404 25.8904 45.4581 24.3429 45.8412 22.8084C46.2178 21.2994 45.9426 19.8661 44.8017 18.8032C43.4201 17.516 42.137 16.9828 40.9847 16.8978C39.8267 16.8125 38.6956 17.1722 37.611 17.862ZM36.9188 41.6706C37.3997 41.6706 37.7894 42.0644 37.7894 42.5501V45.2136C37.7894 45.6993 37.3997 46.0931 36.9188 46.0931C36.438 46.0931 36.0481 45.6993 36.0481 45.2136V42.5501C36.0481 42.0644 36.438 41.6706 36.9188 41.6706Z" fill="#298BE9"/>
</svg>
